<?xml version="1.0" encoding="utf-8"?>
<!-- Generator: Adobe Illustrator 27.3.1, SVG Export Plug-In . SVG Version: 6.00 Build 0)  -->
<svg version="1.1" id="Layer_1" xmlns="http://www.w3.org/2000/svg" xmlns:xlink="http://www.w3.org/1999/xlink" x="0px" y="0px"
	 viewBox="0 0 793.7 595.28" style="enable-background:new 0 0 793.7 595.28;" xml:space="preserve">
<style type="text/css">
	.st0{fill:#ED315A;}
	.st1{fill:#FCFAFC;}
	.st2{fill:#C02D47;}
	.st3{clip-path:url(#SVGID_00000145769790577265755590000003116674004962508701_);fill:#FFFFFF;}
	.st4{clip-path:url(#SVGID_00000145769790577265755590000003116674004962508701_);fill:#FDFEFE;}
	
		.st5{clip-path:url(#SVGID_00000145769790577265755590000003116674004962508701_);fill:none;stroke:#FFFFFF;stroke-width:0.5;stroke-miterlimit:10;}
	.st6{clip-path:url(#SVGID_00000145769790577265755590000003116674004962508701_);fill:#FCFAFC;}
</style>
<rect y="0" class="st0" width="793.7" height="595.28"/>
<rect x="113.71" y="180.25" class="st1" width="184.63" height="178.54"/>
<rect x="116.74" y="183.27" class="st0" width="178.57" height="172.5"/>
<rect x="206.29" y="183.27" class="st2" width="89.02" height="172.5"/>
<g>
	<defs>
		<rect id="SVGID_1_" width="793.7" height="595.28"/>
	</defs>
	<clipPath id="SVGID_00000104688355101646712470000016454104308362674331_">
		<use xlink:href="#SVGID_1_"  style="overflow:visible;"/>
	</clipPath>
	<path style="clip-path:url(#SVGID_00000104688355101646712470000016454104308362674331_);fill:#FFFFFF;" d="M167.92,279.55
		c-8.62-18.47-17.19-36.87-25.82-55.36c0.35-0.02,0.61-0.05,0.87-0.05c15.79,0,31.57,0,47.36-0.02c0.67,0,0.95,0.24,1.21,0.81
		c4.61,9.94,9.25,19.86,13.88,29.79c0.14,0.3,0.29,0.58,0.52,1.05c0.2-0.38,0.34-0.62,0.46-0.88c4.68-10.02,9.35-20.04,14.01-30.06
		c0.21-0.46,0.42-0.73,1.01-0.73c15.98,0.02,31.96,0.02,47.94,0.02h0.59c-8.66,18.56-17.27,37.03-25.9,55.54
		c-3.33-2.1-6.61-4.15-9.88-6.21c-9.19-5.78-18.38-11.55-27.55-17.34c-0.52-0.33-0.86-0.34-1.39-0.01
		c-12.13,7.64-24.27,15.27-36.4,22.9C168.56,279.17,168.28,279.33,167.92,279.55"/>
	<path style="clip-path:url(#SVGID_00000104688355101646712470000016454104308362674331_);fill:#FFFFFF;" d="M174.09,292.76
		c0.98-0.62,1.91-1.21,2.84-1.79c9.49-5.97,18.99-11.93,28.47-17.91c0.42-0.27,0.71-0.33,1.17-0.04
		c10.25,6.46,20.51,12.91,30.78,19.36c0.18,0.12,0.35,0.25,0.58,0.41c-1.44,3.09-2.87,6.16-4.3,9.22c-3.21,6.9-6.43,13.79-9.63,20.7
		c-0.26,0.56-0.55,0.74-1.17,0.74c-11.22-0.03-22.44-0.03-33.67-0.03c-0.5,0-0.85-0.06-1.1-0.6c-4.59-9.89-9.19-19.76-13.8-29.64
		C174.22,293.06,174.18,292.96,174.09,292.76"/>
	<path style="clip-path:url(#SVGID_00000104688355101646712470000016454104308362674331_);fill:#FDFEFE;" d="M121.83,411.41
		l-2.67,7.25h-1.65l7.7-20.98h1.92l8.03,20.98h-1.77l-2.73-7.25H121.83z M130.13,409.92c-2.34-6.23-3.54-9.23-3.96-10.64h-0.03
		c-0.51,1.59-1.86,5.3-3.75,10.64H130.13z"/>
	
		<path style="clip-path:url(#SVGID_00000104688355101646712470000016454104308362674331_);fill:none;stroke:#FFFFFF;stroke-width:0.5;stroke-miterlimit:10;" d="
		M121.83,411.41l-2.67,7.25h-1.65l7.7-20.98h1.92l8.03,20.98h-1.77l-2.73-7.25H121.83z M130.13,409.92
		c-2.34-6.23-3.54-9.23-3.96-10.64h-0.03c-0.51,1.59-1.86,5.3-3.75,10.64H130.13z"/>
	<polygon style="clip-path:url(#SVGID_00000104688355101646712470000016454104308362674331_);fill:#FDFEFE;" points="165.84,397.69 
		167.46,397.69 167.46,417.17 178.72,417.17 178.42,418.67 165.84,418.67 	"/>
	
		<polygon style="clip-path:url(#SVGID_00000104688355101646712470000016454104308362674331_);fill:none;stroke:#FFFFFF;stroke-width:0.5;stroke-miterlimit:10;" points="
		165.84,397.69 167.46,397.69 167.46,417.17 178.72,417.17 178.42,418.67 165.84,418.67 	"/>
	<polygon style="clip-path:url(#SVGID_00000104688355101646712470000016454104308362674331_);fill:#FDFEFE;" points="203.86,408.36 
		193.16,408.36 193.16,417.17 204.88,417.17 204.64,418.67 191.54,418.67 191.54,397.69 204.4,397.69 204.4,399.19 193.16,399.19 
		193.16,406.86 203.86,406.86 	"/>
	
		<polygon style="clip-path:url(#SVGID_00000104688355101646712470000016454104308362674331_);fill:none;stroke:#FFFFFF;stroke-width:0.5;stroke-miterlimit:10;" points="
		203.86,408.36 193.16,408.36 193.16,417.17 204.88,417.17 204.64,418.67 191.54,418.67 191.54,397.69 204.4,397.69 204.4,399.19 
		193.16,399.19 193.16,406.86 203.86,406.86 	"/>
	<path style="clip-path:url(#SVGID_00000104688355101646712470000016454104308362674331_);fill:#FDFEFE;" d="M234.65,418.67h-1.35
		c-0.12-0.24-0.18-1.32-0.21-3.36c-0.75,1.44-2.4,3.6-6.77,3.6c-6.02,0-9.11-4.59-9.11-10.55c0-6.26,3.29-10.97,9.44-10.97
		c4.52,0,7.52,2.37,8.18,6.23h-1.62c-0.9-2.97-2.97-4.73-6.62-4.73c-5.24,0-7.64,4.08-7.64,9.38c0,4.79,2.31,9.14,7.43,9.14
		c5.24,0,6.71-3.42,6.71-8.06v-0.24h-6.77v-1.5h8.33V418.67z"/>
	
		<path style="clip-path:url(#SVGID_00000104688355101646712470000016454104308362674331_);fill:none;stroke:#FFFFFF;stroke-width:0.5;stroke-miterlimit:10;" d="
		M234.65,418.67h-1.35c-0.12-0.24-0.18-1.32-0.21-3.36c-0.75,1.44-2.4,3.6-6.77,3.6c-6.02,0-9.11-4.59-9.11-10.55
		c0-6.26,3.29-10.97,9.44-10.97c4.52,0,7.52,2.37,8.18,6.23h-1.62c-0.9-2.97-2.97-4.73-6.62-4.73c-5.24,0-7.64,4.08-7.64,9.38
		c0,4.79,2.31,9.14,7.43,9.14c5.24,0,6.71-3.42,6.71-8.06v-0.24h-6.77v-1.5h8.33V418.67z"/>
	<path style="clip-path:url(#SVGID_00000104688355101646712470000016454104308362674331_);fill:#FDFEFE;" d="M252.14,411.41
		l-2.67,7.25h-1.65l7.7-20.98h1.92l8.03,20.98h-1.77l-2.73-7.25H252.14z M260.44,409.92c-2.34-6.23-3.54-9.23-3.95-10.64h-0.03
		c-0.51,1.59-1.86,5.3-3.75,10.64H260.44z"/>
	
		<path style="clip-path:url(#SVGID_00000104688355101646712470000016454104308362674331_);fill:none;stroke:#FFFFFF;stroke-width:0.5;stroke-miterlimit:10;" d="
		M252.14,411.41l-2.67,7.25h-1.65l7.7-20.98h1.92l8.03,20.98h-1.77l-2.73-7.25H252.14z M260.44,409.92
		c-2.34-6.23-3.54-9.23-3.95-10.64h-0.03c-0.51,1.59-1.86,5.3-3.75,10.64H260.44z"/>
	<path style="clip-path:url(#SVGID_00000104688355101646712470000016454104308362674331_);fill:#FDFEFE;" d="M294.27,413.06
		c-0.99,3.33-3.45,5.84-7.88,5.84c-6.02,0-9.2-4.79-9.2-10.7c0-5.66,3.12-10.82,9.23-10.82c4.53,0,7.19,2.52,7.88,6.02h-1.62
		c-0.96-2.73-2.73-4.52-6.35-4.52c-5.21,0-7.4,4.76-7.4,9.29c0,4.49,2.16,9.23,7.52,9.23c3.42,0,5.15-1.77,6.2-4.35H294.27z"/>
	
		<path style="clip-path:url(#SVGID_00000104688355101646712470000016454104308362674331_);fill:none;stroke:#FFFFFF;stroke-width:0.5;stroke-miterlimit:10;" d="
		M294.27,413.06c-0.99,3.33-3.45,5.84-7.88,5.84c-6.02,0-9.2-4.79-9.2-10.7c0-5.66,3.12-10.82,9.23-10.82
		c4.53,0,7.19,2.52,7.88,6.02h-1.62c-0.96-2.73-2.73-4.52-6.35-4.52c-5.21,0-7.4,4.76-7.4,9.29c0,4.49,2.16,9.23,7.52,9.23
		c3.42,0,5.15-1.77,6.2-4.35H294.27z"/>
	<path style="clip-path:url(#SVGID_00000104688355101646712470000016454104308362674331_);fill:#FDFEFE;" d="M313.52,418.67v-7.88
		c0-0.18-0.06-0.39-0.12-0.48l-7.49-12.62h1.89c2.1,3.57,5.75,9.77,6.65,11.33c0.9-1.56,4.59-7.7,6.83-11.33h1.8l-7.82,12.74
		c-0.06,0.12-0.09,0.24-0.09,0.45v7.79H313.52z"/>
	
		<path style="clip-path:url(#SVGID_00000104688355101646712470000016454104308362674331_);fill:none;stroke:#FFFFFF;stroke-width:0.5;stroke-miterlimit:10;" d="
		M313.52,418.67v-7.88c0-0.18-0.06-0.39-0.12-0.48l-7.49-12.62h1.89c2.1,3.57,5.75,9.77,6.65,11.33c0.9-1.56,4.59-7.7,6.83-11.33
		h1.8l-7.82,12.74c-0.06,0.12-0.09,0.24-0.09,0.45v7.79H313.52z"/>
	<path style="clip-path:url(#SVGID_00000104688355101646712470000016454104308362674331_);fill:#FDFEFE;" d="M370.56,408.03
		c0,5.72-3.06,10.94-9.53,10.94c-5.9,0-9.35-4.76-9.35-10.79c0-5.93,3.33-10.79,9.56-10.79C367,397.39,370.56,401.91,370.56,408.03
		 M353.42,408.09c0,4.82,2.67,9.38,7.7,9.38c5.42,0,7.7-4.43,7.7-9.41c0-4.88-2.58-9.17-7.64-9.17
		C355.79,398.89,353.42,403.35,353.42,408.09"/>
	
		<path style="clip-path:url(#SVGID_00000104688355101646712470000016454104308362674331_);fill:none;stroke:#FFFFFF;stroke-width:0.5;stroke-miterlimit:10;" d="
		M370.56,408.03c0,5.72-3.06,10.94-9.53,10.94c-5.9,0-9.35-4.76-9.35-10.79c0-5.93,3.33-10.79,9.56-10.79
		C367,397.39,370.56,401.91,370.56,408.03z M353.42,408.09c0,4.82,2.67,9.38,7.7,9.38c5.42,0,7.7-4.43,7.7-9.41
		c0-4.88-2.58-9.17-7.64-9.17C355.79,398.89,353.42,403.35,353.42,408.09z"/>
	<polygon style="clip-path:url(#SVGID_00000104688355101646712470000016454104308362674331_);fill:#FDFEFE;" points="384.76,397.69 
		397.47,397.69 397.47,399.19 386.38,399.19 386.38,407.1 396.78,407.1 396.78,408.6 386.38,408.6 386.38,418.67 384.76,418.67 	"/>
	
		<polygon style="clip-path:url(#SVGID_00000104688355101646712470000016454104308362674331_);fill:none;stroke:#FFFFFF;stroke-width:0.5;stroke-miterlimit:10;" points="
		384.76,397.69 397.47,397.69 397.47,399.19 386.38,399.19 386.38,407.1 396.78,407.1 396.78,408.6 386.38,408.6 386.38,418.67 
		384.76,418.67 	"/>
	<polygon style="clip-path:url(#SVGID_00000104688355101646712470000016454104308362674331_);fill:#FDFEFE;" points="428.13,397.69 
		440.84,397.69 440.84,399.19 429.75,399.19 429.75,407.1 440.15,407.1 440.15,408.6 429.75,408.6 429.75,418.67 428.13,418.67 	"/>
	
		<polygon style="clip-path:url(#SVGID_00000104688355101646712470000016454104308362674331_);fill:none;stroke:#FFFFFF;stroke-width:0.5;stroke-miterlimit:10;" points="
		428.13,397.69 440.84,397.69 440.84,399.19 429.75,399.19 429.75,407.1 440.15,407.1 440.15,408.6 429.75,408.6 429.75,418.67 
		428.13,418.67 	"/>
	
		<rect x="454.14" y="397.69" style="clip-path:url(#SVGID_00000104688355101646712470000016454104308362674331_);fill:#FDFEFE;" width="1.62" height="20.98"/>
	
		<rect x="454.14" y="397.69" style="clip-path:url(#SVGID_00000104688355101646712470000016454104308362674331_);fill:none;stroke:#FFFFFF;stroke-width:0.5;stroke-miterlimit:10;" width="1.62" height="20.98"/>
	<path style="clip-path:url(#SVGID_00000104688355101646712470000016454104308362674331_);fill:#FDFEFE;" d="M471.51,418.67v-20.98
		h2.4c3.27,5.03,10.94,16.75,12.26,19.03h0.03c-0.18-3.03-0.15-6.11-0.15-9.53v-9.5h1.65v20.98h-2.22
		c-3.12-4.85-10.91-17.05-12.41-19.36h-0.03c0.15,2.76,0.12,5.81,0.12,9.62v9.74H471.51z"/>
	
		<path style="clip-path:url(#SVGID_00000104688355101646712470000016454104308362674331_);fill:none;stroke:#FFFFFF;stroke-width:0.5;stroke-miterlimit:10;" d="
		M471.51,418.67v-20.98h2.4c3.27,5.03,10.94,16.75,12.26,19.03h0.03c-0.18-3.03-0.15-6.11-0.15-9.53v-9.5h1.65v20.98h-2.22
		c-3.12-4.85-10.91-17.05-12.41-19.36h-0.03c0.15,2.76,0.12,5.81,0.12,9.62v9.74H471.51z"/>
	<polygon style="clip-path:url(#SVGID_00000104688355101646712470000016454104308362674331_);fill:#FDFEFE;" points="515.76,408.36 
		505.06,408.36 505.06,417.17 516.78,417.17 516.54,418.67 503.45,418.67 503.45,397.69 516.3,397.69 516.3,399.19 505.06,399.19 
		505.06,406.86 515.76,406.86 	"/>
	
		<polygon style="clip-path:url(#SVGID_00000104688355101646712470000016454104308362674331_);fill:none;stroke:#FFFFFF;stroke-width:0.5;stroke-miterlimit:10;" points="
		515.76,408.36 505.06,408.36 505.06,417.17 516.78,417.17 516.54,418.67 503.45,418.67 503.45,397.69 516.3,397.69 516.3,399.19 
		505.06,399.19 505.06,406.86 515.76,406.86 	"/>
	<polygon style="clip-path:url(#SVGID_00000104688355101646712470000016454104308362674331_);fill:#FDFEFE;" points="547.87,397.69 
		549.49,397.69 549.49,417.17 560.75,417.17 560.45,418.67 547.87,418.67 	"/>
	
		<polygon style="clip-path:url(#SVGID_00000104688355101646712470000016454104308362674331_);fill:none;stroke:#FFFFFF;stroke-width:0.5;stroke-miterlimit:10;" points="
		547.87,397.69 549.49,397.69 549.49,417.17 560.75,417.17 560.45,418.67 547.87,418.67 	"/>
	
		<rect x="573.57" y="397.69" style="clip-path:url(#SVGID_00000104688355101646712470000016454104308362674331_);fill:#FDFEFE;" width="1.62" height="20.98"/>
	
		<rect x="573.57" y="397.69" style="clip-path:url(#SVGID_00000104688355101646712470000016454104308362674331_);fill:none;stroke:#FFFFFF;stroke-width:0.5;stroke-miterlimit:10;" width="1.62" height="20.98"/>
	<path style="clip-path:url(#SVGID_00000104688355101646712470000016454104308362674331_);fill:#FDFEFE;" d="M595.92,418.67
		l-7.79-20.98h1.74l4.08,10.97c1.17,3.18,2.49,6.68,2.94,8.45h0.06c0.45-1.56,1.89-5.24,3.06-8.33l4.22-11.09h1.71l-8.09,20.98
		H595.92z"/>
	
		<path style="clip-path:url(#SVGID_00000104688355101646712470000016454104308362674331_);fill:none;stroke:#FFFFFF;stroke-width:0.5;stroke-miterlimit:10;" d="
		M595.92,418.67l-7.79-20.98h1.74l4.08,10.97c1.17,3.18,2.49,6.68,2.94,8.45h0.06c0.45-1.56,1.89-5.24,3.06-8.33l4.22-11.09h1.71
		l-8.09,20.98H595.92z"/>
	
		<rect x="619.07" y="397.69" style="clip-path:url(#SVGID_00000104688355101646712470000016454104308362674331_);fill:#FDFEFE;" width="1.62" height="20.98"/>
	
		<rect x="619.07" y="397.69" style="clip-path:url(#SVGID_00000104688355101646712470000016454104308362674331_);fill:none;stroke:#FFFFFF;stroke-width:0.5;stroke-miterlimit:10;" width="1.62" height="20.98"/>
	<path style="clip-path:url(#SVGID_00000104688355101646712470000016454104308362674331_);fill:#FDFEFE;" d="M636.45,418.67v-20.98
		h2.4c3.27,5.03,10.94,16.75,12.26,19.03h0.03c-0.18-3.03-0.15-6.11-0.15-9.53v-9.5h1.65v20.98h-2.22
		c-3.12-4.85-10.91-17.05-12.4-19.36h-0.03c0.15,2.76,0.12,5.81,0.12,9.62v9.74H636.45z"/>
	
		<path style="clip-path:url(#SVGID_00000104688355101646712470000016454104308362674331_);fill:none;stroke:#FFFFFF;stroke-width:0.5;stroke-miterlimit:10;" d="
		M636.45,418.67v-20.98h2.4c3.27,5.03,10.94,16.75,12.26,19.03h0.03c-0.18-3.03-0.15-6.11-0.15-9.53v-9.5h1.65v20.98h-2.22
		c-3.12-4.85-10.91-17.05-12.4-19.36h-0.03c0.15,2.76,0.12,5.81,0.12,9.62v9.74H636.45z"/>
	<path style="clip-path:url(#SVGID_00000104688355101646712470000016454104308362674331_);fill:#FDFEFE;" d="M684.26,418.67h-1.35
		c-0.12-0.24-0.18-1.32-0.21-3.36c-0.75,1.44-2.4,3.6-6.77,3.6c-6.02,0-9.11-4.59-9.11-10.55c0-6.26,3.3-10.97,9.44-10.97
		c4.52,0,7.52,2.37,8.18,6.23h-1.62c-0.9-2.97-2.97-4.73-6.62-4.73c-5.24,0-7.64,4.08-7.64,9.38c0,4.79,2.31,9.14,7.43,9.14
		c5.24,0,6.71-3.42,6.71-8.06v-0.24h-6.77v-1.5h8.33V418.67z"/>
	
		<path style="clip-path:url(#SVGID_00000104688355101646712470000016454104308362674331_);fill:none;stroke:#FFFFFF;stroke-width:0.5;stroke-miterlimit:10;" d="
		M684.26,418.67h-1.35c-0.12-0.24-0.18-1.32-0.21-3.36c-0.75,1.44-2.4,3.6-6.77,3.6c-6.02,0-9.11-4.59-9.11-10.55
		c0-6.26,3.3-10.97,9.44-10.97c4.52,0,7.52,2.37,8.18,6.23h-1.62c-0.9-2.97-2.97-4.73-6.62-4.73c-5.24,0-7.64,4.08-7.64,9.38
		c0,4.79,2.31,9.14,7.43,9.14c5.24,0,6.71-3.42,6.71-8.06v-0.24h-6.77v-1.5h8.33V418.67z"/>
	<path style="clip-path:url(#SVGID_00000104688355101646712470000016454104308362674331_);fill:#FCFAFC;" d="M361.03,264.77
		l31.55-81.8h-9.51l-16.25,42.65c-0.83,2.18-1.69,4.45-2.56,6.72c-2.86,7.52-5.8,15.23-7.64,20.59c-1.96-6.27-5.23-15.14-8.42-23.78
		l-17.14-46.18h-9.6l30.38,81.8H361.03z"/>
	<path style="clip-path:url(#SVGID_00000104688355101646712470000016454104308362674331_);fill:#FCFAFC;" d="M390.14,264.77
		l10.04-27.29h31.27l10.26,27.29h9.73l-31.32-81.8h-9.21l-30.03,81.8H390.14z M403.35,228.98c1.95-5.5,3.74-10.53,5.34-15.02
		c2.92-8.19,5.23-14.7,6.77-19.19c1.31,3.71,3.3,8.95,6.05,16.19c1.89,4.96,4.14,10.91,6.82,18.02H403.35z"/>
	<path style="clip-path:url(#SVGID_00000104688355101646712470000016454104308362674331_);fill:#FCFAFC;" d="M501.92,244.84v2.03
		c0,1.09-0.01,2.16-0.02,3.22c-0.05,5.74-0.09,10.7,1.26,13.81l0.38,0.86h9.43l-0.99-2.06c-1.05-2.17-0.97-7.69-0.9-12.12
		c0.02-1.13,0.03-2.23,0.03-3.26v-3.05c0-10.7-3.32-17.36-10.37-20.59c7.35-3.16,11.61-9.82,11.61-18.53
		c0-13.89-9.43-22.18-25.23-22.18h-29.73v81.79h9.07V227.9h17.96C499.31,227.9,501.92,233.36,501.92,244.84 M466.46,191.48h19.31
		c7.83,0,17.17,2.39,17.17,13.79c0,9.64-5.99,14.12-18.86,14.12h-17.62V191.48z"/>
	<path style="clip-path:url(#SVGID_00000104688355101646712470000016454104308362674331_);fill:#FCFAFC;" d="M595.4,227.03v37.74
		h8.96v-81.79h-11.41l-0.37,0.88c-9.69,23.03-23.04,56.18-27.41,67.91c-4.59-12.88-16.82-44.45-26.2-67.89l-0.36-0.9h-11.54v81.79
		h8.96v-35.03c0-9.52-0.11-21.96-0.4-31.62c6.27,17.8,18.88,50.63,24.8,65.74l0.36,0.91h7.92l0.36-0.9
		c1.84-4.57,3.88-9.61,6.01-14.86c7.61-18.79,16.02-39.55,20.53-51.8C595.47,204.49,595.4,214.47,595.4,227.03"/>
	<path style="clip-path:url(#SVGID_00000104688355101646712470000016454104308362674331_);fill:#FCFAFC;" d="M673.42,264.77h9.73
		l-31.32-81.8h-9.21l-30.03,81.8h9.26l10.03-27.29h31.27L673.42,264.77z M660.05,228.98h-24.99c1.95-5.5,3.74-10.53,5.34-15.02
		c2.92-8.19,5.23-14.7,6.77-19.19c1.31,3.71,3.3,8.95,6.05,16.19C655.12,215.91,657.38,221.86,660.05,228.98"/>
	<path style="clip-path:url(#SVGID_00000104688355101646712470000016454104308362674331_);fill:#FCFAFC;" d="M543.79,274.91
		c-9.26,21.82-22,53.14-26.35,64.66c-4.52-12.53-16.21-42.41-25.18-64.64l-0.38-0.94h-11.36v78.53h8.91v-33.65
		c0-9.39-0.11-20.64-0.36-29.45c6.14,17.21,18.04,47.9,23.68,62.15l0.38,0.95h7.83l0.38-0.94c1.77-4.36,3.73-9.16,5.78-14.16
		c7.21-17.64,15.17-37.1,19.58-48.91c-0.13,6.9-0.19,16.19-0.19,27.77v36.24h8.91v-78.53h-11.24L543.79,274.91z"/>
	<polygon style="clip-path:url(#SVGID_00000104688355101646712470000016454104308362674331_);fill:#FCFAFC;" points="579.37,315.41 
		618.25,315.41 618.25,307.01 579.37,307.01 579.37,282.39 620.21,282.39 620.21,273.99 570.46,273.99 570.46,352.52 620.86,352.52 
		622.21,344.12 579.37,344.12 	"/>
	<polygon style="clip-path:url(#SVGID_00000104688355101646712470000016454104308362674331_);fill:#FCFAFC;" points="374.46,307.82 
		330.61,307.82 330.61,274.02 321.45,274.02 321.45,354.68 330.61,354.68 330.61,316.45 374.46,316.45 374.46,354.68 383.62,354.68 
		383.62,274.02 374.46,274.02 	"/>
	<path style="clip-path:url(#SVGID_00000104688355101646712470000016454104308362674331_);fill:#FCFAFC;" d="M432.73,272.91
		c-22.27,0-37.24,16.65-37.24,41.44c0,24.79,14.65,41.44,36.45,41.44c25.65,0,37.12-21.09,37.12-41.99
		C469.07,289.34,454.47,272.91,432.73,272.91 M432.28,347.16c-18.68,0-27.19-17.18-27.19-33.14c0-14.98,7.18-32.48,27.41-32.48
		c18.62,0,26.96,16.26,26.96,32.37C459.47,344.76,438.66,347.16,432.28,347.16"/>
	<path style="clip-path:url(#SVGID_00000104688355101646712470000016454104308362674331_);fill:#FCFAFC;" d="M656.69,307.75
		c-14.44-3.55-18.39-6.54-18.39-13.9c0-7.94,5.64-12.31,15.89-12.31c10.25,0,16.15,4.28,18.05,13.07l0.26,1.22h9.26l-0.18-1.71
		c-1.05-9.79-8.76-21.22-27.05-21.22c-19.07,0-25.83,11.46-25.83,21.27c0,13.23,9.95,18.41,24.9,22.11
		c16.77,4.1,19.95,9.1,19.95,16.9c0,9.01-6.48,13.97-18.24,13.97c-11.55,0-18.29-4.97-20.62-15.2l-0.27-1.2h-9.3l0.24,1.76
		c0.97,6.93,5.8,23.05,29.73,23.05c17.05,0,28.06-8.96,28.06-22.82C683.15,323.15,679.95,313.48,656.69,307.75"/>
</g>
</svg>
