<?xml version="1.0" encoding="utf-8"?>
<!-- Generator: Adobe Illustrator 27.3.1, SVG Export Plug-In . SVG Version: 6.00 Build 0)  -->
<svg version="1.1" id="Layer_1" xmlns="http://www.w3.org/2000/svg" xmlns:xlink="http://www.w3.org/1999/xlink" x="0px" y="0px"
	 viewBox="0 0 608 270" style="enable-background:new 0 0 608 270;" xml:space="preserve">
<style type="text/css">
	.st0{fill:#ED315A;}
	.st1{fill:#C02D47;}
	.st2{clip-path:url(#SVGID_00000094590915890487759430000005139690403456585634_);fill:#FFFFFF;}
	.st3{clip-path:url(#SVGID_00000094590915890487759430000005139690403456585634_);fill:#2E2C2C;}
	.st4{clip-path:url(#SVGID_00000094590915890487759430000005139690403456585634_);fill:#4D4043;}
</style>
<rect x="14.94" y="12.56" class="st0" width="181.75" height="175.58"/>
<rect x="106.09" y="12.56" class="st1" width="90.6" height="175.58"/>
<g>
	<defs>
		<rect id="SVGID_1_" x="-93" y="-165.28" width="793.7" height="595.28"/>
	</defs>
	<clipPath id="SVGID_00000042010948989071701290000009643973376641871744_">
		<use xlink:href="#SVGID_1_"  style="overflow:visible;"/>
	</clipPath>
	<path style="clip-path:url(#SVGID_00000042010948989071701290000009643973376641871744_);fill:#FFFFFF;" d="M67.03,110.56
		c-8.77-18.8-17.5-37.52-26.28-56.35c0.36-0.02,0.62-0.05,0.88-0.05c16.07,0,32.13,0,48.2-0.02c0.68,0,0.96,0.24,1.24,0.83
		c4.69,10.11,9.41,20.21,14.13,30.32c0.14,0.3,0.29,0.59,0.53,1.06c0.2-0.39,0.35-0.63,0.47-0.89c4.76-10.2,9.51-20.4,14.26-30.6
		c0.22-0.47,0.42-0.74,1.03-0.74c16.26,0.02,32.53,0.02,48.79,0.02h0.6c-8.81,18.89-17.57,37.69-26.36,56.53
		c-3.39-2.13-6.72-4.22-10.05-6.32c-9.35-5.88-18.7-11.75-28.04-17.65c-0.53-0.33-0.88-0.34-1.41-0.01
		c-12.34,7.78-24.7,15.54-37.05,23.31C67.69,110.17,67.4,110.34,67.03,110.56"/>
	<path style="clip-path:url(#SVGID_00000042010948989071701290000009643973376641871744_);fill:#FFFFFF;" d="M73.32,124
		c1-0.63,1.95-1.23,2.89-1.83c9.66-6.07,19.33-12.15,28.98-18.23c0.43-0.27,0.73-0.34,1.19-0.04c10.43,6.58,20.88,13.14,31.32,19.71
		c0.19,0.12,0.36,0.25,0.59,0.41c-1.47,3.14-2.93,6.27-4.38,9.39c-3.27,7.02-6.55,14.04-9.8,21.06c-0.26,0.57-0.56,0.76-1.19,0.76
		c-11.42-0.03-22.85-0.04-34.27-0.03c-0.51,0-0.86-0.06-1.12-0.61c-4.67-10.06-9.36-20.11-14.04-30.17
		C73.45,124.32,73.41,124.21,73.32,124"/>
	<path style="clip-path:url(#SVGID_00000042010948989071701290000009643973376641871744_);fill:#2E2C2C;" d="M20.13,244.77
		l-2.72,7.38h-1.68l7.84-21.35h1.95l8.17,21.35h-1.8l-2.77-7.38H20.13z M28.58,243.25c-2.38-6.34-3.6-9.39-4.03-10.83h-0.03
		c-0.52,1.62-1.89,5.4-3.81,10.83H28.58z"/>
	<polygon style="clip-path:url(#SVGID_00000042010948989071701290000009643973376641871744_);fill:#2E2C2C;" points="64.92,230.8 
		66.57,230.8 66.57,250.63 78.03,250.63 77.73,252.15 64.92,252.15 	"/>
	<polygon style="clip-path:url(#SVGID_00000042010948989071701290000009643973376641871744_);fill:#2E2C2C;" points="103.61,241.66 
		92.73,241.66 92.73,250.63 104.65,250.63 104.41,252.15 91.08,252.15 91.08,230.8 104.16,230.8 104.16,232.33 92.73,232.33 
		92.73,240.14 103.61,240.14 	"/>
	<path style="clip-path:url(#SVGID_00000042010948989071701290000009643973376641871744_);fill:#2E2C2C;" d="M134.96,252.15h-1.37
		c-0.12-0.24-0.18-1.34-0.21-3.42c-0.76,1.46-2.44,3.66-6.89,3.66c-6.13,0-9.27-4.67-9.27-10.74c0-6.37,3.35-11.16,9.61-11.16
		c4.61,0,7.65,2.41,8.33,6.34h-1.65c-0.91-3.02-3.02-4.82-6.74-4.82c-5.34,0-7.78,4.15-7.78,9.55c0,4.88,2.35,9.3,7.56,9.3
		c5.34,0,6.83-3.48,6.83-8.2v-0.24h-6.89v-1.52h8.48V252.15z"/>
	<path style="clip-path:url(#SVGID_00000042010948989071701290000009643973376641871744_);fill:#2E2C2C;" d="M152.76,244.77
		l-2.71,7.38h-1.68l7.84-21.35h1.95l8.17,21.35h-1.8l-2.78-7.38H152.76z M161.21,243.25c-2.38-6.34-3.6-9.39-4.03-10.83h-0.03
		c-0.52,1.62-1.89,5.4-3.81,10.83H161.21z"/>
	<path style="clip-path:url(#SVGID_00000042010948989071701290000009643973376641871744_);fill:#2E2C2C;" d="M195.63,246.45
		c-1.01,3.39-3.51,5.95-8.02,5.95c-6.13,0-9.36-4.88-9.36-10.89c0-5.76,3.17-11.01,9.39-11.01c4.61,0,7.32,2.56,8.02,6.13h-1.65
		c-0.98-2.78-2.77-4.61-6.47-4.61c-5.31,0-7.53,4.85-7.53,9.45c0,4.58,2.2,9.39,7.66,9.39c3.48,0,5.25-1.8,6.31-4.42H195.63z"/>
	<path style="clip-path:url(#SVGID_00000042010948989071701290000009643973376641871744_);fill:#2E2C2C;" d="M215.23,252.15v-8.02
		c0-0.18-0.06-0.4-0.12-0.49l-7.62-12.84h1.92c2.14,3.63,5.86,9.94,6.77,11.53c0.91-1.59,4.67-7.84,6.95-11.53h1.83L217,243.77
		c-0.06,0.12-0.09,0.24-0.09,0.46v7.93H215.23z"/>
	<path style="clip-path:url(#SVGID_00000042010948989071701290000009643973376641871744_);fill:#2E2C2C;" d="M273.29,241.33
		c0,5.83-3.11,11.13-9.7,11.13c-6.01,0-9.52-4.85-9.52-10.98c0-6.04,3.39-10.98,9.73-10.98C269.66,230.5,273.29,235.1,273.29,241.33
		 M255.84,241.39c0,4.91,2.71,9.55,7.84,9.55c5.52,0,7.84-4.51,7.84-9.58c0-4.97-2.62-9.33-7.78-9.33
		C258.25,232.02,255.84,236.57,255.84,241.39"/>
	<polygon style="clip-path:url(#SVGID_00000042010948989071701290000009643973376641871744_);fill:#2E2C2C;" points="287.74,230.8 
		300.67,230.8 300.67,232.33 289.38,232.33 289.38,240.38 299.97,240.38 299.97,241.91 289.38,241.91 289.38,252.15 287.74,252.15 	
		"/>
	<polygon style="clip-path:url(#SVGID_00000042010948989071701290000009643973376641871744_);fill:#2E2C2C;" points="331.89,230.8 
		344.82,230.8 344.82,232.33 333.53,232.33 333.53,240.38 344.11,240.38 344.11,241.91 333.53,241.91 333.53,252.15 331.89,252.15 	
		"/>
	
		<rect x="358.35" y="230.8" style="clip-path:url(#SVGID_00000042010948989071701290000009643973376641871744_);fill:#2E2C2C;" width="1.65" height="21.35"/>
	<path style="clip-path:url(#SVGID_00000042010948989071701290000009643973376641871744_);fill:#2E2C2C;" d="M376.03,252.15V230.8
		h2.44c3.33,5.12,11.13,17.05,12.48,19.37h0.03c-0.18-3.08-0.15-6.22-0.15-9.7v-9.67h1.68v21.35h-2.26
		c-3.17-4.94-11.1-17.35-12.63-19.7h-0.03c0.15,2.81,0.12,5.92,0.12,9.79v9.91H376.03z"/>
	<polygon style="clip-path:url(#SVGID_00000042010948989071701290000009643973376641871744_);fill:#2E2C2C;" points="421.07,241.66 
		410.18,241.66 410.18,250.63 422.11,250.63 421.86,252.15 408.54,252.15 408.54,230.8 421.62,230.8 421.62,232.33 410.18,232.33 
		410.18,240.14 421.07,240.14 	"/>
	<polygon style="clip-path:url(#SVGID_00000042010948989071701290000009643973376641871744_);fill:#2E2C2C;" points="453.75,230.8 
		455.4,230.8 455.4,250.63 466.86,250.63 466.56,252.15 453.75,252.15 	"/>
	
		<rect x="479.91" y="230.8" style="clip-path:url(#SVGID_00000042010948989071701290000009643973376641871744_);fill:#2E2C2C;" width="1.65" height="21.35"/>
	<path style="clip-path:url(#SVGID_00000042010948989071701290000009643973376641871744_);fill:#2E2C2C;" d="M502.66,252.15
		l-7.93-21.35h1.77l4.15,11.16c1.19,3.23,2.53,6.8,2.99,8.6h0.06c0.46-1.59,1.92-5.34,3.11-8.48l4.3-11.29h1.74l-8.23,21.35H502.66z
		"/>
	
		<rect x="526.22" y="230.8" style="clip-path:url(#SVGID_00000042010948989071701290000009643973376641871744_);fill:#2E2C2C;" width="1.65" height="21.35"/>
	<path style="clip-path:url(#SVGID_00000042010948989071701290000009643973376641871744_);fill:#2E2C2C;" d="M543.91,252.15V230.8
		h2.44c3.32,5.12,11.13,17.05,12.47,19.37h0.03c-0.18-3.08-0.15-6.22-0.15-9.7v-9.67h1.68v21.35h-2.26
		c-3.17-4.94-11.1-17.35-12.63-19.7h-0.03c0.15,2.81,0.12,5.92,0.12,9.79v9.91H543.91z"/>
	<path style="clip-path:url(#SVGID_00000042010948989071701290000009643973376641871744_);fill:#2E2C2C;" d="M592.57,252.15h-1.37
		c-0.12-0.24-0.18-1.34-0.21-3.42c-0.76,1.46-2.44,3.66-6.89,3.66c-6.13,0-9.27-4.67-9.27-10.74c0-6.37,3.35-11.16,9.61-11.16
		c4.61,0,7.66,2.41,8.33,6.34h-1.65c-0.92-3.02-3.02-4.82-6.74-4.82c-5.34,0-7.78,4.15-7.78,9.55c0,4.88,2.35,9.3,7.56,9.3
		c5.34,0,6.83-3.48,6.83-8.2v-0.24h-6.89v-1.52h8.48V252.15z"/>
	<path style="clip-path:url(#SVGID_00000042010948989071701290000009643973376641871744_);fill:#4D4043;" d="M263.59,95.52
		l32.11-83.25h-9.68l-16.54,43.4c-0.84,2.22-1.72,4.52-2.6,6.84c-2.92,7.65-5.91,15.5-7.78,20.96c-2-6.38-5.33-15.41-8.57-24.2
		l-17.45-47h-9.77l30.92,83.25H263.59z"/>
	<path style="clip-path:url(#SVGID_00000042010948989071701290000009643973376641871744_);fill:#4D4043;" d="M293.21,95.52
		l10.21-27.77h31.82l10.44,27.77h9.91l-31.87-83.25h-9.37l-30.57,83.25H293.21z M306.66,59.09c1.98-5.6,3.8-10.71,5.44-15.29
		c2.97-8.34,5.32-14.96,6.89-19.53c1.33,3.77,3.36,9.1,6.16,16.48c1.92,5.05,4.22,11.1,6.94,18.35H306.66z"/>
	<path style="clip-path:url(#SVGID_00000042010948989071701290000009643973376641871744_);fill:#4D4043;" d="M406.99,75.24v2.07
		c0,1.11-0.01,2.2-0.02,3.28c-0.05,5.84-0.09,10.89,1.28,14.06l0.38,0.88h9.6l-1.01-2.1c-1.07-2.21-0.99-7.83-0.92-12.34
		c0.02-1.15,0.03-2.27,0.03-3.32v-3.1c0-10.89-3.38-17.67-10.55-20.96c7.48-3.21,11.81-10,11.81-18.86
		c0-14.14-9.6-22.58-25.67-22.58h-30.26v83.25h9.23V57.99h18.28C404.32,57.99,406.99,63.55,406.99,75.24 M370.89,20.93h19.65
		c7.97,0,17.48,2.43,17.48,14.03c0,9.81-6.1,14.38-19.2,14.38h-17.93V20.93z"/>
	<path style="clip-path:url(#SVGID_00000042010948989071701290000009643973376641871744_);fill:#4D4043;" d="M502.13,57.1v38.41
		h9.12V12.27h-11.61l-0.38,0.9c-9.86,23.44-23.45,57.18-27.9,69.12c-4.67-13.1-17.12-45.24-26.66-69.1l-0.37-0.92h-11.74v83.25h9.12
		V59.86c0-9.69-0.11-22.35-0.4-32.18c6.38,18.12,19.21,51.53,25.24,66.91l0.36,0.93h8.07l0.37-0.92c1.87-4.65,3.95-9.78,6.12-15.13
		c7.75-19.12,16.3-40.26,20.89-52.72C502.2,34.17,502.13,44.33,502.13,57.1"/>
	<path style="clip-path:url(#SVGID_00000042010948989071701290000009643973376641871744_);fill:#4D4043;" d="M581.54,95.52h9.91
		l-31.87-83.25h-9.37l-30.57,83.25h9.42l10.21-27.77h31.82L581.54,95.52z M567.93,59.09H542.5c1.98-5.6,3.8-10.71,5.44-15.29
		c2.97-8.34,5.32-14.96,6.89-19.53c1.33,3.77,3.36,9.1,6.16,16.48C562.91,45.79,565.21,51.84,567.93,59.09"/>
	<path style="clip-path:url(#SVGID_00000042010948989071701290000009643973376641871744_);fill:#4D4043;" d="M449.6,105.84
		c-9.43,22.2-22.39,54.09-26.82,65.81c-4.6-12.75-16.49-43.16-25.63-65.79l-0.39-0.96h-11.57v79.93h9.07v-34.25
		c0-9.55-0.12-21.01-0.37-29.97c6.25,17.51,18.36,48.76,24.1,63.26l0.38,0.97h7.97l0.39-0.96c1.8-4.44,3.8-9.33,5.88-14.42
		c7.34-17.95,15.44-37.76,19.93-49.78c-0.13,7.03-0.19,16.48-0.19,28.27v36.89h9.07V104.9h-11.44L449.6,105.84z"/>
	<polygon style="clip-path:url(#SVGID_00000042010948989071701290000009643973376641871744_);fill:#4D4043;" points="485.82,147.06 
		525.38,147.06 525.38,138.51 485.82,138.51 485.82,113.45 527.38,113.45 527.38,104.9 476.74,104.9 476.74,184.83 528.04,184.83 
		529.42,176.28 485.82,176.28 	"/>
	<polygon style="clip-path:url(#SVGID_00000042010948989071701290000009643973376641871744_);fill:#4D4043;" points="277.26,139.33 
		232.62,139.33 232.62,104.93 223.3,104.93 223.3,187.03 232.62,187.03 232.62,148.11 277.26,148.11 277.26,187.03 286.58,187.03 
		286.58,104.93 277.26,104.93 	"/>
	<path style="clip-path:url(#SVGID_00000042010948989071701290000009643973376641871744_);fill:#4D4043;" d="M336.56,103.8
		c-22.67,0-37.9,16.95-37.9,42.17c0,25.23,14.91,42.17,37.1,42.17c26.1,0,37.79-21.47,37.79-42.74
		C373.55,120.53,358.68,103.8,336.56,103.8 M336.1,179.37c-19.01,0-27.67-17.49-27.67-33.73c0-15.25,7.31-33.05,27.9-33.05
		c18.96,0,27.44,16.54,27.44,32.94C363.77,176.93,342.59,179.37,336.1,179.37"/>
	<path style="clip-path:url(#SVGID_00000042010948989071701290000009643973376641871744_);fill:#4D4043;" d="M564.51,139.27
		c-14.69-3.61-18.72-6.65-18.72-14.15c0-8.08,5.74-12.53,16.17-12.53c10.43,0,16.44,4.35,18.37,13.31l0.27,1.24h9.42l-0.19-1.74
		c-1.07-9.96-8.92-21.59-27.53-21.59c-19.41,0-26.29,11.66-26.29,21.65c0,13.47,10.13,18.74,25.34,22.5
		c17.07,4.17,20.31,9.26,20.31,17.2c0,9.17-6.59,14.22-18.56,14.22c-11.75,0-18.62-5.06-20.99-15.47l-0.28-1.23h-9.46l0.25,1.79
		c0.98,7.05,5.9,23.46,30.26,23.46c17.35,0,28.57-9.12,28.57-23.23C591.44,154.94,588.18,145.1,564.51,139.27"/>
</g>
</svg>
